# xmcd
#
# Track frame offsets:
#	150
#	19407
#	31950
#	48027
#	77027
#	97299
#	144042
#	201094
#	219532
#	237414
#	260376
#	275905
#	293937
#
# Disc length: 4265 seconds
#
# Revision: 1
# Processed by: cddbd v1.5PL3 Copyright (c) Steve Scherf et al.
# Submitted via: audiograbber 1.82.01
#
DISCID=c110a70d
DTITLE=Elton John - 1974-12-24 - Disc 1
DYEAR=1900
DGENRE=
TTITLE0=Elton John - Skyline Pigeon
TTITLE1=Elton John - I Need You To Turn To
TTITLE2=Elton John - Border Song
TTITLE3=Elton John - Country Comfort
TTITLE4=Elton John - High Flying Bird
TTITLE5=Elton John - Burn Down The Mission
TTITLE6=Elton John - Funeral For A Friend and Love Lies Bleeding
TTITLE7=Elton John - Candle In The Wind
TTITLE8=Elton John - Grimsby
TTITLE9=Elton John - Rocket Man
TTITLE10=Elton John - Goodbye Yellow Brick Road
TTITLE11=Elton John - Daniel
TTITLE12=Elton John - Grey Seal
EXTD=
EXTT0=
EXTT1=
EXTT2=
EXTT3=
EXTT4=
EXTT5=
EXTT6=
EXTT7=
EXTT8=
EXTT9=
EXTT10=
EXTT11=
EXTT12=
PLAYORDER=
